# xmcd
#
# Track frame offsets:
# 150
# 26717
# 48086
# 71520
# 98977
# 121575
# 160807
# 188099
# 221760
# 243273
# 269630
#
# Disc length: 3827 seconds
#
#
# Revision: 1
# Processed by: cddbd v1.5.2PL0 Copyright (c) Steve Scherf et al.
# Submitted via: FreeRIP 2.92 
#
DISCID=950ef10b
DTITLE=Billy Taylor - Its a matter of pride
DYEAR=1994
DGENRE=Jazz
TTITLE0=At la Caroussel
TTITLE1=Picture this
TTITLE2=Its a matter of pride
TTITLE3=His name was Martin
TTITLE4=Titoro
TTITLE5=Back Home
TTITLE6=Lookin' Up
TTITLE7=Paraphrase
TTITLE8=I'am a Lover
TTITLE9=If you realy are concerned
TTITLE10=Mood for Mendes
EXTD=YEAR: 1994
EXTT0=
EXTT1=
EXTT2=
EXTT3=
EXTT4=
EXTT5=
EXTT6=
EXTT7=
EXTT8=
EXTT9=
EXTT10=
PLAYORDER=
